<?xml version="1.0" standalone="no"?><!DOCTYPE svg PUBLIC "-//W3C//DTD SVG 1.1//EN" "http://www.w3.org/Graphics/SVG/1.1/DTD/svg11.dtd"><svg class="icon" height="512" viewBox="0 0 1024 1024" version="1.1" xmlns="http://www.w3.org/2000/svg"><path d="M1024 512A512 512 0 1 1 0 512a512 512 0 0 1 1024 0z m-288.128-322.56c-52.032 1.792-97.408 30.464-131.2 70.08-37.44 43.52-62.336 95.104-80.256 147.712-32.128-26.24-56.832-60.352-108.352-75.136a132.352 132.352 0 0 0-120 21.888 107.52 107.52 0 0 0-36.736 53.504c-15.36 50.176 16.256 94.912 30.656 110.912l31.488 33.728c6.4 6.592 22.08 23.872 14.464 48.576-8.256 26.88-40.64 44.224-73.92 34.048-14.848-4.544-36.16-15.616-31.36-31.168 1.92-6.4 6.528-11.2 8.96-16.64 2.24-4.736 3.328-8.32 4.032-10.368 6.016-19.84-2.24-45.632-23.488-52.16-19.84-6.08-40.064-1.28-48 24.192-8.896 28.992 4.992 81.6 79.36 104.448 87.04 26.816 160.64-20.608 171.072-82.368 6.528-38.72-10.88-67.52-42.944-104.448l-26.112-28.864c-15.808-15.808-21.184-42.752-4.864-63.36 13.824-17.472 33.472-24.96 65.664-16.192 47.04 12.8 67.968 45.376 102.912 71.68-14.4 47.36-23.872 94.848-32.384 137.472l-5.248 31.808c-24.96 131.008-44.096 202.944-93.632 244.288-9.984 7.104-24.32 17.728-45.76 18.496-11.328 0.32-14.976-7.424-15.104-10.88-0.256-7.872 6.4-11.52 10.88-15.04 6.592-3.584 16.64-9.6 15.872-28.8-0.64-22.656-19.456-42.368-46.656-41.472-20.352 0.704-51.328 19.84-50.176 54.912 1.216 36.224 34.944 63.36 85.824 61.632 27.2-0.96 87.936-12.032 147.84-83.2 69.632-81.536 89.152-174.976 103.808-243.456l16.32-90.304c9.088 1.024 18.816 1.792 29.44 2.048 86.72 1.856 130.112-43.072 130.752-75.776 0.448-19.84-12.928-39.296-31.744-38.848a36.16 36.16 0 0 0-34.368 27.904c-3.968 18.24 27.584 34.688 2.944 50.752-17.536 11.328-48.96 19.264-93.184 12.8l8-44.48c16.448-84.288 36.672-188.032 113.536-190.592 5.632-0.256 26.112 0.256 26.56 13.824 0.128 4.48-0.96 5.696-6.272 16a36.608 36.608 0 0 0-7.168 22.912c0.704 21.504 17.088 35.648 40.832 34.816 31.68-1.024 40.768-31.872 40.32-47.744-1.408-37.312-40.64-60.8-92.608-59.136z" fill="#FFFFFF" /></svg>